<svg xmlns="http://www.w3.org/2000/svg" viewBox="0 0 32 32"><defs><style>.cls-2{fill:#a1d8df}.cls-3{fill:#d1e6e9}</style></defs><g id="Meditate"><path d="M24 29H4c0-2.41-.12-1.93 5-5h10c5.15 3.09 5 2.58 5 5z" style="fill:#68c7d3"/><path class="cls-2" d="M23.06 31H10.55a1.55 1.55 0 0 1-.1-3.09l12.49-.78a1.94 1.94 0 1 1 .12 3.87z"/><path class="cls-2" d="M17.45 31H4.94a1.94 1.94 0 1 1 .12-3.87l12.49.78a1.55 1.55 0 0 1-.1 3.09z"/><path class="cls-3" d="M17.45 31H11v-3.5l6.55.41a1.55 1.55 0 0 1-.1 3.09zM18 7a4 4 0 0 1-8 0V5a4 4 0 0 1 6.83-2.83C18.23 3.59 18 5 18 7zM27 25.47A1.35 1.35 0 0 1 25.65 27c-.87 0-.86-.26-4.28-4.54-.52-.62-.6-1-2.37-5.46v7H9v-7c-2.51 6.26-1.18 4-5.59 9.49A1.35 1.35 0 0 1 1 25.65a1.38 1.38 0 0 1 .3-1C5 20 5 20.12 5.11 19.61 7.17 12.35 6.29 13.14 12 12c4.8 0 3.17-.17 7.21.64 2.24.45 2.37 2.39 3.26 5.49.44 1.56.45 1.77.78 2.18 3.46 4.34 3.75 4.48 3.75 5.16z"/><path d="m22.47 18.13-2.74.69L19 17v7H9v-7l-.73 1.82-2.74-.69c1.59-5.53.89-5 6.47-6.13 4.8 0 3.17-.17 7.21.64 2.24.45 2.37 2.36 3.26 5.49z" style="fill:#30acc2"/><path class="cls-3" d="M16 12a2.83 2.83 0 0 1-4 0V8h4zM26.67 10.93A4.94 4.94 0 0 1 21 5.33a5 5 0 0 1 5.67 5.6z"/><path class="cls-3" d="M25.33 10.93A5 5 0 0 1 31 5.33a5 5 0 0 1-5.67 5.6z"/><path class="cls-2" d="M28 7a5.67 5.67 0 0 1-2 4 5.67 5.67 0 0 1-2-4 5.67 5.67 0 0 1 2-4 5.67 5.67 0 0 1 2 4zM18 6a6.84 6.84 0 0 1-5-2 3.26 3.26 0 0 1-3 2v-.77a4 4 0 0 1 6.83-3.06A4.67 4.67 0 0 1 18 6z"/></g></svg>